<?xml version="1.0" encoding="UTF-8" standalone="no"?>
<svg
   width="6000"
   height="2500"
   viewBox="0 0 614.4 255.95234"
   version="1.1"
   id="svg269"
   sodipodi:docname="prodmais_docker.svg"
   inkscape:version="1.1.2 (0a00cf5339, 2022-02-04)"
   xmlns:inkscape="http://www.inkscape.org/namespaces/inkscape"
   xmlns:sodipodi="http://sodipodi.sourceforge.net/DTD/sodipodi-0.dtd"
   xmlns:xlink="http://www.w3.org/1999/xlink"
   xmlns="http://www.w3.org/2000/svg"
   xmlns:svg="http://www.w3.org/2000/svg">
  <defs
     id="defs273">
    <linearGradient
       id="linearGradient2257"
       inkscape:swatch="gradient">
      <stop
         style="stop-color:#64dfe6;stop-opacity:1;"
         offset="0"
         id="stop2253" />
      <stop
         style="stop-color:#b5d9e5;stop-opacity:1"
         offset="1"
         id="stop2255" />
    </linearGradient>
    <linearGradient
       inkscape:collect="always"
       xlink:href="#linearGradient2257"
       id="linearGradient2263"
       gradientUnits="userSpaceOnUse"
       x1="581.07349"
       y1="122.52851"
       x2="46.507751"
       y2="116.42709" />
    <inkscape:path-effect
       effect="fill_between_many"
       method="originald"
       linkedpaths="#g2379-3,0,1"
       id="path-effect2634" />
  </defs>
  <sodipodi:namedview
     id="namedview271"
     pagecolor="#505050"
     bordercolor="#eeeeee"
     borderopacity="1"
     inkscape:pageshadow="0"
     inkscape:pageopacity="0"
     inkscape:pagecheckerboard="0"
     showgrid="false"
     width="6000px"
     inkscape:zoom="0.10370899"
     inkscape:cx="2989.1333"
     inkscape:cy="612.29022"
     inkscape:window-width="1536"
     inkscape:window-height="795"
     inkscape:window-x="0"
     inkscape:window-y="32"
     inkscape:window-maximized="1"
     inkscape:current-layer="layer2"
     inkscape:snap-page="true" />
  <g
     inkscape:groupmode="layer"
     id="layer1"
     inkscape:label="Layer 1"
     style="display:inline">
    <rect
       style="fill:url(#linearGradient2263);fill-opacity:1;stroke:#000000;stroke-width:0.1024"
       id="rect1855"
       width="614.40002"
       height="256"
       x="0"
       y="-0.02383" />
  </g>
  <g
     inkscape:groupmode="layer"
     id="layer2"
     inkscape:label="Layer 2"
     style="display:inline">
    <g
       id="g2379">
      <g
         id="g278"
         transform="matrix(1.1441674,0,0,-1.09172,-404.15783,479.43435)"
         style="display:inline;fill:#1c8ebb;fill-opacity:1">
        <g
           id="g45"
           transform="translate(454.35985,251.26283)"
           style="fill:#1c8ebb;fill-opacity:1">
          <path
             d="m 0,0 h 20.471 l 22.922,45.843 c 0.31,0.618 0.941,1.009 1.633,1.009 h 35.14 c 18.369,0 33.313,14.945 33.313,33.314 0,18.368 -14.944,33.313 -33.313,33.313 h -2.042 c -0.774,0 -1.462,0.487 -1.721,1.216 -4.704,13.285 -17.313,22.21 -31.377,22.21 -7.45,0 -14.515,-2.435 -20.432,-7.042 -0.612,-0.472 -1.459,-0.513 -2.11,-0.093 -7.261,4.667 -15.667,7.135 -24.31,7.135 -24.827,0 -45.028,-20.198 -45.028,-45.025 0,-1.01 -0.816,-1.826 -1.826,-1.826 -11.909,0 -21.599,-9.691 -21.599,-21.602 0,-11.91 9.69,-21.6 21.599,-21.6 h 23.428 c 1.009,0 1.826,-0.817 1.826,-1.827 0,-11.909 9.69,-21.599 21.6,-21.599 C -0.816,23.426 0,22.609 0,21.6 Z M 21.6,-3.652 H -1.826 c -1.009,0 -1.826,0.817 -1.826,1.826 V 19.84 c -12.473,0.893 -22.465,10.887 -23.36,23.36 H -48.68 c -13.923,0 -25.252,11.328 -25.252,25.252 0,13.322 10.368,24.268 23.458,25.192 0.932,26.027 22.396,46.914 48.648,46.914 8.918,0 17.604,-2.431 25.202,-7.04 6.349,4.609 13.806,7.04 21.65,7.04 15.173,0 28.822,-9.361 34.364,-23.426 h 0.776 c 20.384,0 36.966,-16.582 36.966,-36.966 C 117.132,59.782 100.55,43.2 80.166,43.2 H 46.155 L 23.233,-2.643 C 22.923,-3.262 22.292,-3.652 21.6,-3.652"
             style="fill:#1c8ebb;fill-opacity:1;fill-rule:nonzero;stroke:none"
             id="path47" />
        </g>
        <g
           id="g49"
           transform="translate(452.53415,318.80193)"
           style="fill:#1c8ebb;fill-opacity:1">
          <path
             d="m 0,0 c -12.413,0 -22.513,-10.101 -22.513,-22.514 0,-12.412 10.1,-22.512 22.513,-22.512 H 22.513 V 0 Z M 23.426,-46.853 H 0 c -13.42,0 -24.339,10.919 -24.339,24.339 0,13.421 10.919,24.34 24.339,24.34 h 23.426 c 0.505,0 0.913,-0.409 0.913,-0.913 v -46.852 c 0,-0.504 -0.408,-0.914 -0.913,-0.914"
             style="fill:#1c8ebb;fill-opacity:1;fill-rule:nonzero;stroke:none"
             id="path51" />
        </g>
        <g
           id="g53"
           transform="translate(406.59325,297.20133)"
           style="fill:#1c8ebb;fill-opacity:1">
          <path
             d="M 0,0 H 91.88 V 45.941 C 91.88,71.271 71.271,91.88 45.941,91.88 20.608,91.88 0,71.271 0,45.941 Z M 92.792,-1.825 H -0.913 c -0.504,0 -0.913,0.408 -0.913,0.912 v 46.854 c 0,26.338 21.429,47.765 47.767,47.765 26.338,0 47.765,-21.427 47.765,-47.765 V -0.913 c 0,-0.504 -0.409,-0.912 -0.914,-0.912"
             style="fill:#1c8ebb;fill-opacity:1;fill-rule:nonzero;stroke:none"
             id="path55" />
        </g>
        <g
           id="g57"
           transform="translate(453.44725,250.34973)"
           style="fill:#1c8ebb;fill-opacity:1">
          <path
             d="M 0,0 H 21.949 L 44.462,45.026 H 0 Z M 22.513,-1.826 H -0.913 c -0.505,0 -0.913,0.408 -0.913,0.913 v 46.851 c 0,0.505 0.408,0.914 0.913,0.914 h 46.851 c 0.316,0 0.61,-0.164 0.778,-0.433 0.166,-0.27 0.18,-0.605 0.039,-0.889 L 23.33,-1.321 C 23.174,-1.63 22.859,-1.826 22.513,-1.826"
             style="fill:#1c8ebb;fill-opacity:1;fill-rule:nonzero;stroke:none"
             id="path59" />
        </g>
        <g
           id="g61"
           transform="translate(405.68015,342.22963)"
           style="fill:#1c8ebb;fill-opacity:1">
          <path
             d="m 0,0 c -12.413,0 -22.513,-10.101 -22.513,-22.515 0,-12.413 10.1,-22.513 22.513,-22.513 H 22.515 V 0 Z M 23.428,-46.854 H 0 c -13.42,0 -24.339,10.918 -24.339,24.339 0,13.422 10.919,24.341 24.339,24.341 h 23.428 c 0.505,0 0.913,-0.409 0.913,-0.913 v -46.854 c 0,-0.504 -0.408,-0.913 -0.913,-0.913"
             style="fill:#1c8ebb;fill-opacity:1;fill-rule:nonzero;stroke:none"
             id="path63" />
        </g>
        <g
           id="g65"
           transform="translate(500.29885,297.20133)"
           style="fill:#1c8ebb;fill-opacity:1">
          <path
             d="M 0,0 H 34.227 C 53.1,0 68.454,15.354 68.454,34.228 68.454,53.101 53.1,68.454 34.227,68.454 H 0 Z m 34.227,-1.825 h -35.14 c -0.504,0 -0.913,0.408 -0.913,0.912 v 70.28 c 0,0.505 0.409,0.913 0.913,0.913 h 35.14 c 19.879,0 36.053,-16.174 36.053,-36.052 0,-19.88 -16.174,-36.053 -36.053,-36.053"
             style="fill:#1c8ebb;fill-opacity:1;fill-rule:nonzero;stroke:none"
             id="path67" />
        </g>
        <g
           id="g69"
           transform="translate(465.15915,320.62803)"
           style="fill:#1c8ebb;fill-opacity:1">
          <path
             d="M 0,0 H 68.454 V 34.227 C 68.454,53.1 53.1,68.453 34.227,68.453 15.354,68.453 0,53.1 0,34.227 Z m 69.367,-1.826 h -70.28 c -0.504,0 -0.913,0.408 -0.913,0.913 v 35.14 c 0,19.878 16.174,36.052 36.053,36.052 19.879,0 36.053,-16.174 36.053,-36.052 v -35.14 c 0,-0.505 -0.409,-0.913 -0.913,-0.913"
             style="fill:#1c8ebb;fill-opacity:1;fill-rule:nonzero;stroke:none"
             id="path71" />
        </g>
      </g>
    </g>
    <text
       xml:space="preserve"
       style="font-size:84.1858px;line-height:1.25;font-family:sans-serif;word-spacing:0px;display:inline;fill:#1c8ebb;fill-opacity:1;stroke-width:2.10464"
       x="245.76662"
       y="161.01736"
       id="text22274"
       transform="scale(1.0324622,0.96855846)"><tspan
         sodipodi:role="line"
         id="tspan22272"
         style="fill:#1c8ebb;fill-opacity:1;stroke-width:2.10464"
         x="245.76662"
         y="161.01736">+</tspan></text>
    <g
       id="g1295"
       transform="translate(330.59357,57.984187)"
       style="display:inline">
      <path
         d="m 147.488,45.732 h 22.866 v 23.375 h 11.561 c 5.34,0 10.831,-0.951 15.887,-2.664 2.485,-0.843 5.273,-2.015 7.724,-3.49 -3.228,-4.214 -4.876,-9.535 -5.36,-14.78 -0.66,-7.135 0.78,-16.421 5.608,-22.005 l 2.404,-2.78 2.864,2.303 c 7.211,5.793 13.276,13.889 14.345,23.118 8.683,-2.554 18.878,-1.95 26.531,2.467 l 3.14,1.812 -1.652,3.226 C 246.933,68.946 233.4,72.86 220.17,72.167 c -19.797,49.309 -62.898,72.653 -115.157,72.653 -27,0 -51.77,-10.093 -65.876,-34.047 l -0.231,-0.39 -2.055,-4.182 C 32.083,95.657 30.499,84.106 31.573,72.564 l 0.323,-3.457 H 51.45 V 45.732 H 74.315 V 22.866 h 45.733 V 0 h 27.44 v 45.732"
         fill="#364548"
         id="path235"
         style="fill-rule:evenodd"
         sodipodi:nodetypes="cccscccccccccccsccccccccccccc" />
      <path
         d="m 221.57,54.38 c 1.533,-11.916 -7.384,-21.275 -12.914,-25.719 -6.373,7.368 -7.363,26.678 2.635,34.808 -5.58,4.956 -17.337,9.448 -29.376,9.448 H 35.37 c -1.17,12.567 1.036,24.14 6.075,34.045 l 1.667,3.05 a 56.536,56.536 0 0 0 3.455,5.184 c 6.025,0.387 11.58,0.52 16.662,0.408 h 0.002 c 9.987,-0.22 18.136,-1.4 24.312,-3.54 a 1.761,1.761 0 0 1 1.153,3.326 c -0.822,0.286 -1.678,0.552 -2.562,0.805 h -0.003 c -4.863,1.389 -10.078,2.323 -16.806,2.738 0.4,0.007 -0.416,0.06 -0.418,0.06 -0.229,0.015 -0.517,0.048 -0.747,0.06 -2.648,0.149 -5.506,0.18 -8.428,0.18 -3.196,0 -6.343,-0.06 -9.862,-0.24 l -0.09,0.06 c 12.21,13.724 31.302,21.955 55.234,21.955 50.648,0 93.608,-22.452 112.632,-72.857 13.496,1.385 26.467,-2.057 32.367,-13.575 -9.398,-5.423 -21.484,-3.694 -28.443,-0.196"
         fill="#22a0c8"
         id="path237"
         style="fill-rule:evenodd" />
      <path
         d="m 221.57,54.38 c 1.533,-11.916 -7.384,-21.275 -12.914,-25.719 -6.373,7.368 -7.363,26.678 2.635,34.808 -5.58,4.956 -17.337,9.448 -29.376,9.448 H 44.048 c -0.598,19.246 6.544,33.855 19.18,42.687 h 0.003 c 9.987,-0.22 18.136,-1.4 24.312,-3.54 a 1.761,1.761 0 0 1 1.153,3.326 c -0.822,0.286 -1.678,0.552 -2.562,0.805 h -0.003 c -4.863,1.389 -10.526,2.443 -17.254,2.858 -0.002,0 -0.163,-0.155 -0.165,-0.155 17.237,8.842 42.23,8.81 70.885,-2.197 32.13,-12.344 62.029,-35.86 82.89,-62.757 -0.314,0.142 -0.62,0.287 -0.917,0.436"
         fill="#37b1d9"
         id="path239"
         style="fill-rule:evenodd" />
      <path
         d="m 35.645,88.186 c 0.91,6.732 2.88,13.035 5.8,18.776 l 1.667,3.05 a 56.432,56.432 0 0 0 3.455,5.184 c 6.026,0.387 11.581,0.52 16.664,0.408 9.987,-0.22 18.136,-1.4 24.312,-3.54 a 1.761,1.761 0 0 1 1.153,3.326 c -0.822,0.286 -1.678,0.552 -2.562,0.805 h -0.003 c -4.863,1.389 -10.496,2.383 -17.224,2.799 -0.231,0.014 -0.634,0.017 -0.867,0.03 -2.646,0.148 -5.475,0.239 -8.398,0.239 -3.195,0 -6.463,-0.061 -9.98,-0.24 12.21,13.724 31.42,21.985 55.352,21.985 43.36,0 81.084,-16.458 102.979,-52.822 H 35.645"
         fill="#1b81a5"
         id="path241"
         style="fill-rule:evenodd" />
      <path
         d="m 45.367,88.186 c 2.592,11.82 8.821,21.099 17.864,27.418 9.987,-0.22 18.136,-1.4 24.312,-3.54 a 1.761,1.761 0 0 1 1.153,3.326 c -0.822,0.286 -1.678,0.552 -2.562,0.805 h -0.003 c -4.863,1.389 -10.615,2.383 -17.344,2.799 17.236,8.84 42.157,8.713 70.81,-2.293 17.334,-6.66 34.017,-16.574 48.984,-28.515 H 45.367"
         fill="#1d91b4"
         id="path243"
         style="fill-rule:evenodd" />
      <path
         d="M 55.26,49.543 H 75.078 V 69.361 H 55.26 Z m 1.651,1.652 h 1.564 V 67.71 h -1.564 z m 2.94,0 h 1.627 V 67.71 H 59.852 V 51.195 Z m 3.002,0 H 64.48 V 67.71 h -1.627 z m 3.004,0 h 1.626 V 67.71 h -1.626 z m 3.003,0 h 1.626 V 67.71 H 68.86 Z m 3.002,0 h 1.565 V 67.71 H 71.862 Z M 78.126,26.677 H 97.945 V 46.494 H 78.125 V 26.677 Z m 1.652,1.652 h 1.563 v 16.514 h -1.563 z m 2.94,0 h 1.626 V 44.843 H 82.719 V 28.329 Z m 3.002,0 h 1.626 V 44.843 H 85.72 Z m 3.003,0 h 1.626 v 16.514 h -1.626 z m 3.003,0 h 1.627 v 16.514 h -1.627 z m 3.002,0 h 1.566 v 16.514 h -1.566 z"
         fill="#23a3c2"
         id="path245"
         style="fill-rule:evenodd" />
      <path
         d="M 78.126,49.543 H 97.945 V 69.361 H 78.125 V 49.543 Z m 1.652,1.652 h 1.563 V 67.71 h -1.563 z m 2.94,0 h 1.626 V 67.71 H 82.719 V 51.195 Z m 3.002,0 h 1.626 V 67.71 H 85.72 Z m 3.003,0 h 1.626 V 67.71 h -1.626 z m 3.003,0 h 1.627 V 67.71 h -1.627 z m 3.002,0 h 1.566 V 67.71 h -1.566 z"
         fill="#34bbde"
         id="path247"
         style="fill-rule:evenodd" />
      <path
         d="m 100.993,49.543 h 19.818 v 19.818 h -19.818 z m 1.651,1.652 h 1.563 V 67.71 h -1.563 z m 2.94,0 h 1.626 V 67.71 h -1.626 z m 3.003,0 h 1.626 V 67.71 h -1.626 z m 3.003,0 h 1.626 V 67.71 h -1.626 z m 3.002,0 h 1.628 V 67.71 h -1.628 z m 3.003,0 h 1.564 V 67.71 h -1.564 z"
         fill="#23a3c2"
         id="path249"
         style="fill-rule:evenodd" />
      <path
         d="m 100.993,26.677 h 19.818 v 19.817 h -19.818 z m 1.651,1.652 h 1.563 v 16.514 h -1.563 z m 2.94,0 h 1.626 v 16.514 h -1.626 z m 3.003,0 h 1.626 v 16.514 h -1.626 z m 3.003,0 h 1.626 v 16.514 h -1.626 z m 3.002,0 h 1.628 v 16.514 h -1.628 z m 3.003,0 h 1.564 v 16.514 h -1.564 z m 6.264,21.214 h 19.818 v 19.818 h -19.818 z m 1.652,1.652 h 1.563 V 67.71 h -1.563 z m 2.94,0 h 1.626 V 67.71 h -1.626 z m 3.002,0 h 1.626 V 67.71 h -1.626 z m 3.003,0 h 1.627 V 67.71 h -1.627 z m 3.003,0 h 1.627 V 67.71 h -1.627 z m 3.003,0 h 1.564 V 67.71 h -1.564 z"
         fill="#34bbde"
         id="path251"
         style="fill-rule:evenodd" />
      <path
         d="m 123.859,26.677 h 19.818 v 19.817 h -19.818 z m 1.652,1.652 h 1.563 v 16.514 h -1.563 z m 2.94,0 h 1.626 v 16.514 h -1.626 z m 3.002,0 h 1.626 v 16.514 h -1.626 z m 3.003,0 h 1.627 v 16.514 h -1.627 z m 3.003,0 h 1.627 v 16.514 h -1.627 z m 3.003,0 h 1.564 v 16.514 h -1.564 z"
         fill="#23a3c2"
         id="path253"
         style="fill-rule:evenodd" />
      <path
         d="m 123.859,3.81 h 19.818 v 19.82 h -19.818 z m 1.652,1.651 h 1.563 v 16.516 h -1.563 V 5.46 Z m 2.94,0 h 1.626 v 16.516 h -1.626 V 5.46 Z m 3.002,0 h 1.626 v 16.516 h -1.626 V 5.46 Z m 3.003,0 h 1.627 v 16.516 h -1.627 V 5.46 Z m 3.003,0 h 1.627 v 16.516 h -1.627 V 5.46 Z m 3.003,0 h 1.564 v 16.516 h -1.564 V 5.46 Z"
         fill="#34bbde"
         id="path255"
         style="fill-rule:evenodd" />
      <path
         d="m 146.725,49.543 h 19.818 v 19.818 h -19.818 z m 1.65,1.652 h 1.565 V 67.71 h -1.564 V 51.195 Z m 2.94,0 h 1.627 V 67.71 h -1.626 V 51.195 Z m 3.004,0 h 1.627 V 67.71 h -1.627 z m 3.002,0 h 1.627 V 67.71 h -1.627 z m 3.004,0 h 1.626 V 67.71 h -1.626 z m 3.002,0 h 1.564 V 67.71 h -1.564 z"
         fill="#23a3c2"
         id="path257"
         style="fill-rule:evenodd" />
      <path
         d="m 96.704,101.492 a 5.468,5.468 0 1 1 -0.002,10.935 5.468,5.468 0 0 1 0.002,-10.935"
         fill="#d3ecec"
         id="path259"
         style="fill-rule:evenodd" />
      <path
         d="m 96.704,103.043 c 0.5,0 0.977,0.094 1.417,0.265 a 1.598,1.598 0 0 0 0.798,2.98 c 0.605,0 1.13,-0.335 1.402,-0.831 a 3.915,3.915 0 1 1 -3.617,-2.414 M 0,90.162 h 254.327 c -5.537,-1.404 -17.52,-3.302 -15.544,-10.56 -10.07,11.652 -34.353,8.175 -40.482,2.43 -6.824,9.898 -46.554,6.135 -49.325,-1.576 -8.556,10.041 -35.067,10.041 -43.623,0 -2.773,7.711 -42.502,11.474 -49.327,1.575 -6.128,5.746 -30.41,9.223 -40.48,-2.428 C 17.522,86.86 5.539,88.758 0,90.163"
         fill="#364548"
         id="path261"
         style="fill-rule:evenodd" />
      <path
         d="m 111.237,140.89 c -13.54,-6.425 -20.971,-15.16 -25.106,-24.694 -5.03,1.435 -11.075,2.353 -18.1,2.747 -2.646,0.148 -5.43,0.224 -8.35,0.224 -3.368,0 -6.917,-0.1 -10.643,-0.297 12.417,12.41 27.692,21.964 55.976,22.138 2.088,0 4.16,-0.04 6.223,-0.118"
         fill="#bdd9d7"
         id="path263"
         style="fill-rule:evenodd" />
      <path
         d="m 91.16,124.994 c -1.873,-2.543 -3.69,-5.739 -5.026,-8.8 -5.03,1.437 -11.077,2.355 -18.103,2.75 4.826,2.619 11.727,5.046 23.13,6.05"
         fill="#d3ecec"
         id="path265"
         style="fill-rule:evenodd" />
    </g>
    <rect
       style="fill:#b5d9e5;fill-opacity:1;stroke:#000000;stroke-width:0.1024"
       id="rect2795"
       width="280.12469"
       height="128.10187"
       x="-4.3965721"
       y="-163.83698" />
  </g>
</svg>
